<?xml version="1.0" standalone="no"?>
<!DOCTYPE svg PUBLIC "-//W3C//DTD SVG 20010904//EN"
 "http://www.w3.org/TR/2001/REC-SVG-20010904/DTD/svg10.dtd">
<svg version="1.0" xmlns="http://www.w3.org/2000/svg"
 width="77.000000pt" height="200.000000pt" viewBox="0 0 77.000000 200.000000"
 preserveAspectRatio="xMidYMid meet">
<metadata>
Created by potrace 1.15, written by Peter Selinger 2001-2017
</metadata>
<g transform="translate(0.000000,200.000000) scale(0.100000,-0.100000)"
fill="#000000" stroke="none">
<path d="M400 1997 c0 -2 11 -31 24 -65 53 -134 71 -296 42 -366 -17 -40 -71
-83 -114 -92 -18 -4 -32 -7 -32 -9 0 -1 8 -17 17 -36 28 -56 23 -136 -12 -192
-34 -53 -95 -102 -163 -127 -33 -13 -46 -23 -47 -39 -2 -28 -6 -31 -67 -52
l-53 -18 30 -11 c69 -25 84 -33 89 -47 3 -8 4 -18 2 -22 -3 -4 14 -16 37 -25
74 -32 137 -80 170 -131 26 -40 32 -59 32 -105 -1 -32 -8 -69 -18 -89 -9 -19
-17 -35 -17 -36 0 -2 19 -7 43 -13 46 -12 90 -51 106 -95 26 -68 2 -254 -48
-370 -25 -57 -25 -57 -8 -57 17 0 104 90 156 162 97 134 205 390 199 470 l-3
38 -40 -27 c-53 -36 -110 -38 -136 -3 -28 38 -70 166 -72 223 l-2 51 40 9 c22
6 49 16 60 23 18 13 15 14 -27 14 -38 0 -47 3 -51 22 -10 37 9 58 54 58 53 0
42 15 -22 30 -28 7 -53 19 -56 27 -15 38 48 237 89 280 27 29 46 26 119 -18
l52 -30 -6 58 c-16 152 -171 449 -296 566 -42 39 -71 57 -71 44z"/>
</g>
</svg>
