<?xml version="1.0" standalone="no"?>
<!DOCTYPE svg PUBLIC "-//W3C//DTD SVG 20010904//EN"
 "http://www.w3.org/TR/2001/REC-SVG-20010904/DTD/svg10.dtd">
<svg version="1.0" xmlns="http://www.w3.org/2000/svg"
 width="1437.000000pt" height="556.000000pt" viewBox="0 0 1437.000000 556.000000"
 preserveAspectRatio="xMidYMid meet">
<metadata>
Created by potrace 1.15, written by Peter Selinger 2001-2017
</metadata>
<g transform="translate(0.000000,556.000000) scale(0.100000,-0.100000)"
fill="#000000" stroke="none">
<path d="M4490 5549 c-487 -78 -1037 -250 -1580 -494 -58 -26 -141 -63 -185
-82 -44 -19 -95 -43 -115 -53 -19 -10 -91 -47 -160 -81 -229 -113 -530 -277
-705 -382 -33 -20 -88 -54 -123 -74 -76 -46 -468 -305 -535 -353 -386 -281
-661 -522 -856 -747 -138 -161 -268 -383 -224 -383 5 0 48 17 98 38 130 56
513 203 565 217 14 3 68 21 120 39 366 128 791 233 1190 296 209 33 695 30
860 -5 537 -114 842 -416 949 -941 17 -83 31 -162 31 -177 0 -17 5 -27 15 -27
8 0 65 25 127 55 156 75 274 119 403 150 305 72 486 73 753 4 406 -106 788
-433 1084 -929 120 -201 253 -482 318 -672 18 -54 37 -98 41 -98 4 0 26 9 50
20 133 60 250 -21 363 -250 57 -114 131 -336 166 -495 12 -55 24 -106 26 -112
6 -21 34 -15 34 7 0 42 70 301 114 418 84 229 186 384 280 428 58 27 114 31
154 10 63 -32 68 -31 90 26 11 29 24 64 27 78 4 14 25 68 47 120 252 605 573
1031 966 1283 209 135 489 217 737 217 248 0 568 -85 830 -219 44 -23 85 -41
91 -41 7 0 15 19 19 42 28 189 58 309 105 423 151 367 434 588 877 680 113 24
376 35 591 25 198 -9 318 -24 522 -65 69 -14 150 -30 180 -36 187 -37 579
-152 895 -264 88 -31 185 -65 215 -76 72 -26 267 -103 353 -140 37 -16 69 -29
72 -29 18 0 -1 65 -37 124 -158 266 -484 593 -893 895 -55 41 -125 92 -155
115 -51 38 -291 199 -405 271 -27 18 -76 49 -109 69 -32 21 -77 48 -100 61
-22 12 -93 53 -156 90 -110 64 -139 80 -310 173 -275 148 -739 368 -945 447
-33 13 -94 37 -135 53 -518 210 -1119 362 -1432 362 -65 0 -118 -3 -118 -8 0
-4 16 -30 35 -57 156 -222 180 -259 267 -410 168 -289 225 -510 164 -640 -42
-92 -175 -193 -402 -308 -50 -25 -109 -53 -130 -61 -21 -7 -77 -30 -124 -49
-245 -102 -762 -266 -943 -297 -28 -5 -117 -23 -197 -40 -96 -21 -188 -33
-272 -37 l-126 -6 -25 27 c-26 27 -70 155 -108 311 -71 292 -192 577 -224 525
-3 -6 1 -78 10 -160 22 -190 18 -364 -8 -404 -26 -38 -126 -82 -219 -96 -126
-18 -299 17 -364 73 -48 43 -54 195 -20 475 11 88 11 105 -1 109 -44 17 -147
-224 -209 -487 -44 -189 -96 -333 -127 -355 -40 -28 -260 -13 -447 31 -36 9
-99 22 -140 30 -99 19 -337 84 -535 147 -642 203 -1042 420 -1098 596 -21 66
-21 101 -2 199 18 90 24 107 78 227 66 147 169 319 318 531 44 62 79 117 79
123 0 13 -226 13 -310 0z"/>
</g>
</svg>
